<svg xmlns="http://www.w3.org/2000/svg" width="840" height="154" viewBox="0 0 840 154" role="img">
  <defs>
    <style>
  .reveal{animation:rise .7s cubic-bezier(.2,.7,.3,1) both}
  @keyframes rise{from{opacity:0;transform:translateY(8px)}to{opacity:1;transform:translateY(0)}}
  .bar{transform-box:fill-box;transform-origin:bottom;animation:grow .9s cubic-bezier(.2,.7,.3,1) both}
  @keyframes grow{from{transform:scaleY(0)}to{transform:scaleY(1)}}
  .skbar{transform-box:fill-box;transform-origin:left;animation:growx 1.1s cubic-bezier(.2,.7,.3,1) both}
  @keyframes growx{from{transform:scaleX(0)}to{transform:scaleX(1)}}
  .shimmer{animation:sweep 3.4s ease-in-out infinite}
  @keyframes sweep{0%{transform:translateX(-45%)}50%{transform:translateX(45%)}100%{transform:translateX(-45%)}}
  .pulse{animation:pulse 2.2s ease-in-out infinite}
  @keyframes pulse{0%,100%{opacity:1}50%{opacity:.35}}
  .draw{stroke-dasharray:4000;stroke-dashoffset:4000;animation:draw 2.4s cubic-bezier(.2,.7,.3,1) forwards}
  @keyframes draw{to{stroke-dashoffset:0}}
  .fadein{opacity:0;animation:fadein 1.2s ease-out .5s forwards}
  @keyframes fadein{to{opacity:1}}</style>
    <linearGradient id="accent" x1="0" y1="0" x2="1" y2="0">
      <stop offset="0" stop-color="#1f6fda"/><stop offset="0.5" stop-color="#6552d8"/><stop offset="1" stop-color="#2a9d94"/>
    </linearGradient>
    <linearGradient id="glow" x1="0" y1="0" x2="1" y2="0">
      <stop offset="0" stop-color="#ffffff" stop-opacity="0"/><stop offset="0.5" stop-color="#ffffff" stop-opacity="0.75"/><stop offset="1" stop-color="#ffffff" stop-opacity="0"/>
    </linearGradient>
    <linearGradient id="banner" x1="0" y1="0" x2="1" y2="1">
      <stop offset="0" stop-color="#eef2f7"/><stop offset="0.6" stop-color="#ecf1f7"/><stop offset="1" stop-color="#f6f8fb"/>
      <animate attributeName="x2" values="1;0.7;1" dur="8s" repeatCount="indefinite"/>
    </linearGradient>
    <clipPath id="topclip"><rect x="0" y="0" width="840" height="3"/></clipPath>
  </defs>
  <rect x="0.5" y="0.5" width="839" height="153" rx="14" fill="#f6f8fb" stroke="#d6dde7"/>
  <g clip-path="url(#topclip)">
         <rect x="0" y="0" width="840" height="3" fill="url(#accent)"/>
         <rect class="shimmer" x="290" y="0" width="260" height="3" fill="url(#glow)"/>
       </g>
  <g class="reveal"><text x="40" y="40" font-family="ui-monospace,SFMono-Regular,'SF Mono',Menlo,Consolas,monospace" font-size="11" font-weight="600" fill="#5e6b7c" text-anchor="start" opacity="1">CORE STACK</text><g transform="translate(40,56) scale(0.9166666666666666)"><path d="M12.504 0c-.155 0-.315.008-.48.021-4.226.333-3.105 4.807-3.17 6.298-.076 1.092-.3 1.953-1.05 3.02-.885 1.051-2.127 2.75-2.716 4.521-.278.832-.41 1.684-.287 2.489a.424.424 0 00-.11.135c-.26.268-.45.6-.663.839-.199.199-.485.267-.797.4-.313.136-.658.269-.864.68-.09.189-.136.394-.132.602 0 .199.027.4.055.536.058.399.116.728.04.97-.249.68-.28 1.145-.106 1.484.174.334.535.47.94.601.81.2 1.91.135 2.774.6.926.466 1.866.67 2.616.47.526-.116.97-.464 1.208-.946.587-.003 1.23-.269 2.26-.334.699-.058 1.574.267 2.577.2.025.134.063.198.114.333l.003.003c.391.778 1.113 1.132 1.884 1.071.771-.06 1.592-.536 2.257-1.306.631-.765 1.683-1.084 2.378-1.503.348-.199.629-.469.649-.853.023-.4-.2-.811-.714-1.376v-.097l-.003-.003c-.17-.2-.25-.535-.338-.926-.085-.401-.182-.786-.492-1.046h-.003c-.059-.054-.123-.067-.188-.135a.357.357 0 00-.19-.064c.431-1.278.264-2.55-.173-3.694-.533-1.41-1.465-2.638-2.175-3.483-.796-1.005-1.576-1.957-1.56-3.368.026-2.152.236-6.133-3.544-6.139zm.529 3.405h.013c.213 0 .396.062.584.198.19.135.33.332.438.533.105.259.158.459.166.724 0-.02.006-.04.006-.06v.105a.086.086 0 01-.004-.021l-.004-.024a1.807 1.807 0 01-.15.706.953.953 0 01-.213.335.71.71 0 00-.088-.042c-.104-.045-.198-.064-.284-.133a1.312 1.312 0 00-.22-.066c.05-.06.146-.133.183-.198.053-.128.082-.264.088-.402v-.02a1.21 1.21 0 00-.061-.4c-.045-.134-.101-.2-.183-.333-.084-.066-.167-.132-.267-.132h-.016c-.093 0-.176.03-.262.132a.8.8 0 00-.205.334 1.18 1.18 0 00-.09.4v.019c.002.089.008.179.02.267-.193-.067-.438-.135-.607-.202a1.635 1.635 0 01-.018-.2v-.02a1.772 1.772 0 01.15-.768c.082-.22.232-.406.43-.533a.985.985 0 01.594-.2zm-2.962.059h.036c.142 0 .27.048.399.135.146.129.264.288.344.465.09.199.14.4.153.667v.004c.007.134.006.2-.002.266v.08c-.03.007-.056.018-.083.024-.152.055-.274.135-.393.2.012-.09.013-.18.003-.267v-.015c-.012-.133-.04-.2-.082-.333a.613.613 0 00-.166-.267.248.248 0 00-.183-.064h-.021c-.071.006-.13.04-.186.132a.552.552 0 00-.12.27.944.944 0 00-.023.33v.015c.012.135.037.2.08.334.046.134.098.2.166.268.01.009.02.018.034.024-.07.057-.117.07-.176.136a.304.304 0 01-.131.068 2.62 2.62 0 01-.275-.402 1.772 1.772 0 01-.155-.667 1.759 1.759 0 01.08-.668 1.43 1.43 0 01.283-.535c.128-.133.26-.2.418-.2zm1.37 1.706c.332 0 .733.065 1.216.399.293.2.523.269 1.052.468h.003c.255.136.405.266.478.399v-.131a.571.571 0 01.016.47c-.123.31-.516.643-1.063.842v.002c-.268.135-.501.333-.775.465-.276.135-.588.292-1.012.267a1.139 1.139 0 01-.448-.067 3.566 3.566 0 01-.322-.198c-.195-.135-.363-.332-.612-.465v-.005h-.005c-.4-.246-.616-.512-.686-.71-.07-.268-.005-.47.193-.6.224-.135.38-.271.483-.336.104-.074.143-.102.176-.131h.002v-.003c.169-.202.436-.47.839-.601.139-.036.294-.065.466-.065zm2.8 2.142c.358 1.417 1.196 3.475 1.735 4.473.286.534.855 1.659 1.102 3.024.156-.005.33.018.513.064.646-1.671-.546-3.467-1.089-3.966-.22-.2-.232-.335-.123-.335.59.534 1.365 1.572 1.646 2.757.13.535.16 1.104.021 1.67.067.028.135.06.205.067 1.032.534 1.413.938 1.23 1.537v-.043c-.06-.003-.12 0-.18 0h-.016c.151-.467-.182-.825-1.065-1.224-.915-.4-1.646-.336-1.77.465-.008.043-.013.066-.018.135-.068.023-.139.053-.209.064-.43.268-.662.669-.793 1.187-.13.533-.17 1.156-.205 1.869v.003c-.02.334-.17.838-.319 1.35-1.5 1.072-3.58 1.538-5.348.334a2.645 2.645 0 00-.402-.533 1.45 1.45 0 00-.275-.333c.182 0 .338-.03.465-.067a.615.615 0 00.314-.334c.108-.267 0-.697-.345-1.163-.345-.467-.931-.995-1.788-1.521-.63-.4-.986-.87-1.15-1.396-.165-.534-.143-1.085-.015-1.645.245-1.07.873-2.11 1.274-2.763.107-.065.037.135-.408.974-.396.751-1.14 2.497-.122 3.854a8.123 8.123 0 01.647-2.876c.564-1.278 1.743-3.504 1.836-5.268.048.036.217.135.289.202.218.133.38.333.59.465.21.201.477.335.876.335.039.003.075.006.11.006.412 0 .73-.134.997-.268.29-.134.52-.334.74-.4h.005c.467-.135.835-.402 1.044-.7zm2.185 8.958c.037.6.343 1.245.882 1.377.588.134 1.434-.333 1.791-.765l.211-.01c.315-.007.577.01.847.268l.003.003c.208.199.305.53.391.876.085.4.154.78.409 1.066.486.527.645.906.636 1.14l.003-.007v.018l-.003-.012c-.015.262-.185.396-.498.595-.63.401-1.746.712-2.457 1.57-.618.737-1.37 1.14-2.036 1.191-.664.053-1.237-.2-1.574-.898l-.005-.003c-.21-.4-.12-1.025.056-1.69.176-.668.428-1.344.463-1.897.037-.714.076-1.335.195-1.814.12-.465.308-.797.641-.984l.045-.022zm-10.814.049h.01c.053 0 .105.005.157.014.376.055.706.333 1.023.752l.91 1.664.003.003c.243.533.754 1.064 1.189 1.637.434.598.77 1.131.729 1.57v.006c-.057.744-.48 1.148-1.125 1.294-.645.135-1.52.002-2.395-.464-.968-.536-2.118-.469-2.857-.602-.369-.066-.61-.2-.723-.4-.11-.2-.113-.602.123-1.23v-.004l.002-.003c.117-.334.03-.752-.027-1.118-.055-.401-.083-.71.043-.94.16-.334.396-.4.69-.533.294-.135.64-.202.915-.47h.002v-.002c.256-.268.445-.601.668-.838.19-.201.38-.336.663-.336zm7.159-9.074c-.435.201-.945.535-1.488.535-.542 0-.97-.267-1.28-.466-.154-.134-.28-.268-.373-.335-.164-.134-.144-.333-.074-.333.109.016.129.134.199.2.096.066.215.2.36.333.292.2.68.467 1.167.467.485 0 1.053-.267 1.398-.466.195-.135.445-.334.648-.467.156-.136.149-.267.279-.267.128.016.034.134-.147.332a8.097 8.097 0 01-.69.468zm-1.082-1.583V5.64c-.006-.02.013-.042.029-.05.074-.043.18-.027.26.004.063 0 .16.067.15.135-.006.049-.085.066-.135.066-.055 0-.092-.043-.141-.068-.052-.018-.146-.008-.163-.065zm-.551 0c-.02.058-.113.049-.166.066-.047.025-.086.068-.14.068-.05 0-.13-.02-.136-.068-.01-.066.088-.133.15-.133.08-.031.184-.047.259-.005.019.009.036.03.03.05v.02h.003z" fill="#FCC624"/></g><text x="70" y="74" font-family="-apple-system,BlinkMacSystemFont,'Segoe UI',Helvetica,Arial,sans-serif" font-size="14" font-weight="500" fill="#0d141d" text-anchor="start" opacity="1">Linux</text><g transform="translate(134,56) scale(0.9166666666666666)"><path d="M10.204 14.35l.007.01-.999 2.413a5.171 5.171 0 0 1-2.075-2.597l2.578-.437.004.005a.44.44 0 0 1 .484.606zm-.833-2.129a.44.44 0 0 0 .173-.756l.002-.011L7.585 9.7a5.143 5.143 0 0 0-.73 3.255l2.514-.725.002-.009zm1.145-1.98a.44.44 0 0 0 .699-.337l.01-.005.15-2.62a5.144 5.144 0 0 0-3.01 1.442l2.147 1.523.004-.002zm.76 2.75l.723.349.722-.347.18-.78-.5-.623h-.804l-.5.623.179.779zm1.5-3.095a.44.44 0 0 0 .7.336l.008.003 2.134-1.513a5.188 5.188 0 0 0-2.992-1.442l.148 2.615.002.001zm10.876 5.97l-5.773 7.181a1.6 1.6 0 0 1-1.248.594l-9.261.003a1.6 1.6 0 0 1-1.247-.596l-5.776-7.18a1.583 1.583 0 0 1-.307-1.34L2.1 5.573c.108-.47.425-.864.863-1.073L11.305.513a1.606 1.606 0 0 1 1.385 0l8.345 3.985c.438.209.755.604.863 1.073l2.062 8.955c.108.47-.005.963-.308 1.34zm-3.289-2.057c-.042-.01-.103-.026-.145-.034-.174-.033-.315-.025-.479-.038-.35-.037-.638-.067-.895-.148-.105-.04-.18-.165-.216-.216l-.201-.059a6.45 6.45 0 0 0-.105-2.332 6.465 6.465 0 0 0-.936-2.163c.052-.047.15-.133.177-.159.008-.09.001-.183.094-.282.197-.185.444-.338.743-.522.142-.084.273-.137.415-.242.032-.024.076-.062.11-.089.24-.191.295-.52.123-.736-.172-.216-.506-.236-.745-.045-.034.027-.08.062-.111.088-.134.116-.217.23-.33.35-.246.25-.45.458-.673.609-.097.056-.239.037-.303.033l-.19.135a6.545 6.545 0 0 0-4.146-2.003l-.012-.223c-.065-.062-.143-.115-.163-.25-.022-.268.015-.557.057-.905.023-.163.061-.298.068-.475.001-.04-.001-.099-.001-.142 0-.306-.224-.555-.5-.555-.275 0-.499.249-.499.555l.001.014c0 .041-.002.092 0 .128.006.177.044.312.067.475.042.348.078.637.056.906a.545.545 0 0 1-.162.258l-.012.211a6.424 6.424 0 0 0-4.166 2.003 8.373 8.373 0 0 1-.18-.128c-.09.012-.18.04-.297-.029-.223-.15-.427-.358-.673-.608-.113-.12-.195-.234-.329-.349-.03-.026-.077-.062-.111-.088a.594.594 0 0 0-.348-.132.481.481 0 0 0-.398.176c-.172.216-.117.546.123.737l.007.005.104.083c.142.105.272.159.414.242.299.185.546.338.743.522.076.082.09.226.1.288l.16.143a6.462 6.462 0 0 0-1.02 4.506l-.208.06c-.055.072-.133.184-.215.217-.257.081-.546.11-.895.147-.164.014-.305.006-.48.039-.037.007-.09.02-.133.03l-.004.002-.007.002c-.295.071-.484.342-.423.608.061.267.349.429.645.365l.007-.001.01-.003.129-.029c.17-.046.294-.113.448-.172.33-.118.604-.217.87-.256.112-.009.23.069.288.101l.217-.037a6.5 6.5 0 0 0 2.88 3.596l-.09.218c.033.084.069.199.044.282-.097.252-.263.517-.452.813-.091.136-.185.242-.268.399-.02.037-.045.095-.064.134-.128.275-.034.591.213.71.248.12.556-.007.69-.282v-.002c.02-.039.046-.09.062-.127.07-.162.094-.301.144-.458.132-.332.205-.68.387-.897.05-.06.13-.082.215-.105l.113-.205a6.453 6.453 0 0 0 4.609.012l.106.192c.086.028.18.042.256.155.136.232.229.507.342.84.05.156.074.295.145.457.016.037.043.09.062.129.133.276.442.402.69.282.247-.118.341-.435.213-.71-.02-.039-.045-.096-.065-.134-.083-.156-.177-.261-.268-.398-.19-.296-.346-.541-.443-.793-.04-.13.007-.21.038-.294-.018-.022-.059-.144-.083-.202a6.499 6.499 0 0 0 2.88-3.622c.064.01.176.03.213.038.075-.05.144-.114.28-.104.266.039.54.138.87.256.154.06.277.128.448.173.036.01.088.019.13.028l.009.003.007.001c.297.064.584-.098.645-.365.06-.266-.128-.537-.423-.608zM16.4 9.701l-1.95 1.746v.005a.44.44 0 0 0 .173.757l.003.01 2.526.728a5.199 5.199 0 0 0-.108-1.674A5.208 5.208 0 0 0 16.4 9.7zm-4.013 5.325a.437.437 0 0 0-.404-.232.44.44 0 0 0-.372.233h-.002l-1.268 2.292a5.164 5.164 0 0 0 3.326.003l-1.27-2.296h-.01zm1.888-1.293a.44.44 0 0 0-.27.036.44.44 0 0 0-.214.572l-.003.004 1.01 2.438a5.15 5.15 0 0 0 2.081-2.615l-2.6-.44-.004.005z" fill="#326CE5"/></g><text x="164" y="74" font-family="-apple-system,BlinkMacSystemFont,'Segoe UI',Helvetica,Arial,sans-serif" font-size="14" font-weight="500" fill="#0d141d" text-anchor="start" opacity="1">Kubernetes</text><g transform="translate(268,56) scale(0.9166666666666666)"><path d="M13.983 11.078h2.119a.186.186 0 00.186-.185V9.006a.186.186 0 00-.186-.186h-2.119a.185.185 0 00-.185.185v1.888c0 .102.083.185.185.185m-2.954-5.43h2.118a.186.186 0 00.186-.186V3.574a.186.186 0 00-.186-.185h-2.118a.185.185 0 00-.185.185v1.888c0 .102.082.185.185.185m0 2.716h2.118a.187.187 0 00.186-.186V6.29a.186.186 0 00-.186-.185h-2.118a.185.185 0 00-.185.185v1.887c0 .102.082.185.185.186m-2.93 0h2.12a.186.186 0 00.184-.186V6.29a.185.185 0 00-.185-.185H8.1a.185.185 0 00-.185.185v1.887c0 .102.083.185.185.186m-2.964 0h2.119a.186.186 0 00.185-.186V6.29a.185.185 0 00-.185-.185H5.136a.186.186 0 00-.186.185v1.887c0 .102.084.185.186.186m5.893 2.715h2.118a.186.186 0 00.186-.185V9.006a.186.186 0 00-.186-.186h-2.118a.185.185 0 00-.185.185v1.888c0 .102.082.185.185.185m-2.93 0h2.12a.185.185 0 00.184-.185V9.006a.185.185 0 00-.184-.186h-2.12a.185.185 0 00-.184.185v1.888c0 .102.083.185.185.185m-2.964 0h2.119a.185.185 0 00.185-.185V9.006a.185.185 0 00-.184-.186h-2.12a.186.186 0 00-.186.186v1.887c0 .102.084.185.186.185m-2.92 0h2.12a.185.185 0 00.184-.185V9.006a.185.185 0 00-.184-.186h-2.12a.185.185 0 00-.184.185v1.888c0 .102.082.185.185.185M23.763 9.89c-.065-.051-.672-.51-1.954-.51-.338.001-.676.03-1.01.087-.248-1.7-1.653-2.53-1.716-2.566l-.344-.199-.226.327c-.284.438-.49.922-.612 1.43-.23.97-.09 1.882.403 2.661-.595.332-1.55.413-1.744.42H.751a.751.751 0 00-.75.748 11.376 11.376 0 00.692 4.062c.545 1.428 1.355 2.48 2.41 3.124 1.18.723 3.1 1.137 5.275 1.137.983.003 1.963-.086 2.93-.266a12.248 12.248 0 003.823-1.389c.98-.567 1.86-1.288 2.61-2.136 1.252-1.418 1.998-2.997 2.553-4.4h.221c1.372 0 2.215-.549 2.68-1.009.309-.293.55-.65.707-1.046l.098-.288Z" fill="#2496ED"/></g><text x="298" y="74" font-family="-apple-system,BlinkMacSystemFont,'Segoe UI',Helvetica,Arial,sans-serif" font-size="14" font-weight="500" fill="#0d141d" text-anchor="start" opacity="1">Docker</text><g transform="translate(370,56) scale(0.9166666666666666)"><path d="M1.44 0v7.575l6.561 3.79V3.787zm21.12 4.227l-6.561 3.791v7.574l6.56-3.787zM8.72 4.23v7.575l6.561 3.787V8.018zm0 8.405v7.575L15.28 24v-7.578z" fill="#844FBA"/></g><text x="400" y="74" font-family="-apple-system,BlinkMacSystemFont,'Segoe UI',Helvetica,Arial,sans-serif" font-size="14" font-weight="500" fill="#0d141d" text-anchor="start" opacity="1">Terraform</text><g transform="translate(496,56) scale(0.9166666666666666)"><path d="M10.617 11.473l4.686 3.695-3.102-7.662zM12 0C5.371 0 0 5.371 0 12s5.371 12 12 12 12-5.371 12-12S18.629 0 12 0zm5.797 17.305c-.011.471-.403.842-.875.83-.236 0-.416-.09-.664-.293l-6.19-5-2.079 5.203H6.191L11.438 5.44c.124-.314.427-.52.764-.506.326-.014.63.189.742.506l4.774 11.494c.045.111.08.234.08.348-.001.009-.001.009-.001.023z" fill="#0d141d"/></g><text x="526" y="74" font-family="-apple-system,BlinkMacSystemFont,'Segoe UI',Helvetica,Arial,sans-serif" font-size="14" font-weight="500" fill="#0d141d" text-anchor="start" opacity="1">Ansible</text><g transform="translate(606,56) scale(0.9166666666666666)"><path d="M22.379 23.343a1.62 1.62 0 0 0 1.536-2.14v.002L17.35 1.76A1.62 1.62 0 0 0 15.816.657H8.184A1.62 1.62 0 0 0 6.65 1.76L.086 21.204a1.62 1.62 0 0 0 1.536 2.139h4.741a1.62 1.62 0 0 0 1.535-1.103l.977-2.892 4.947 3.675c.28.208.618.32.966.32m-3.084-12.531 3.624 10.739a.54.54 0 0 1-.51.713v-.001h-.03a.54.54 0 0 1-.322-.106l-9.287-6.9h4.853m6.313 7.006c.116-.326.13-.694.007-1.058L9.79 1.76a1.722 1.722 0 0 0-.007-.02h6.034a.54.54 0 0 1 .512.366l6.562 19.445a.54.54 0 0 1-.338.684" fill="#0078D4"/></g><text x="636" y="74" font-family="-apple-system,BlinkMacSystemFont,'Segoe UI',Helvetica,Arial,sans-serif" font-size="14" font-weight="500" fill="#0d141d" text-anchor="start" opacity="1">Azure</text><g transform="translate(700,56) scale(0.9166666666666666)"><path d="M6.763 10.036c0 .296.032.535.088.71.064.176.144.368.256.576.04.063.056.127.056.183 0 .08-.048.16-.152.24l-.503.335a.383.383 0 0 1-.208.072c-.08 0-.16-.04-.239-.112a2.47 2.47 0 0 1-.287-.375 6.18 6.18 0 0 1-.248-.471c-.622.734-1.405 1.101-2.347 1.101-.67 0-1.205-.191-1.596-.574-.391-.384-.59-.894-.59-1.533 0-.678.239-1.23.726-1.644.487-.415 1.133-.623 1.955-.623.272 0 .551.024.846.064.296.04.6.104.918.176v-.583c0-.607-.127-1.03-.375-1.277-.255-.248-.686-.367-1.3-.367-.28 0-.568.031-.863.103-.295.072-.583.16-.862.272a2.287 2.287 0 0 1-.28.104.488.488 0 0 1-.127.023c-.112 0-.168-.08-.168-.247v-.391c0-.128.016-.224.056-.28a.597.597 0 0 1 .224-.167c.279-.144.614-.264 1.005-.36a4.84 4.84 0 0 1 1.246-.151c.95 0 1.644.216 2.091.647.439.43.662 1.085.662 1.963v2.586zm-3.24 1.214c.263 0 .534-.048.822-.144.287-.096.543-.271.758-.51.128-.152.224-.32.272-.512.047-.191.08-.423.08-.694v-.335a6.66 6.66 0 0 0-.735-.136 6.02 6.02 0 0 0-.75-.048c-.535 0-.926.104-1.19.32-.263.215-.39.518-.39.917 0 .375.095.655.295.846.191.2.47.296.838.296zm6.41.862c-.144 0-.24-.024-.304-.08-.064-.048-.12-.16-.168-.311L7.586 5.55a1.398 1.398 0 0 1-.072-.32c0-.128.064-.2.191-.2h.783c.151 0 .255.025.31.08.065.048.113.16.16.312l1.342 5.284 1.245-5.284c.04-.16.088-.264.151-.312a.549.549 0 0 1 .32-.08h.638c.152 0 .256.025.32.08.063.048.12.16.151.312l1.261 5.348 1.381-5.348c.048-.16.104-.264.16-.312a.52.52 0 0 1 .311-.08h.743c.127 0 .2.065.2.2 0 .04-.009.08-.017.128a1.137 1.137 0 0 1-.056.2l-1.923 6.17c-.048.16-.104.263-.168.311a.51.51 0 0 1-.303.08h-.687c-.151 0-.255-.024-.32-.08-.063-.056-.119-.16-.15-.32l-1.238-5.148-1.23 5.14c-.04.16-.087.264-.15.32-.065.056-.177.08-.32.08zm10.256.215c-.415 0-.83-.048-1.229-.143-.399-.096-.71-.2-.918-.32-.128-.071-.215-.151-.247-.223a.563.563 0 0 1-.048-.224v-.407c0-.167.064-.247.183-.247.048 0 .096.008.144.024.048.016.12.048.2.08.271.12.566.215.878.279.319.064.63.096.95.096.502 0 .894-.088 1.165-.264a.86.86 0 0 0 .415-.758.777.777 0 0 0-.215-.559c-.144-.151-.416-.287-.807-.415l-1.157-.36c-.583-.183-1.014-.454-1.277-.813a1.902 1.902 0 0 1-.4-1.158c0-.335.073-.63.216-.886.144-.255.335-.479.575-.654.24-.184.51-.32.83-.415.32-.096.655-.136 1.006-.136.175 0 .359.008.535.032.183.024.35.056.518.088.16.04.312.08.455.127.144.048.256.096.336.144a.69.69 0 0 1 .24.2.43.43 0 0 1 .071.263v.375c0 .168-.064.256-.184.256a.83.83 0 0 1-.303-.096 3.652 3.652 0 0 0-1.532-.311c-.455 0-.815.071-1.062.223-.248.152-.375.383-.375.71 0 .224.08.416.24.567.159.152.454.304.877.44l1.134.358c.574.184.99.44 1.237.767.247.327.367.702.367 1.117 0 .343-.072.655-.207.926-.144.272-.336.511-.583.703-.248.2-.543.343-.886.447-.36.111-.734.167-1.142.167zM21.698 16.207c-2.626 1.94-6.442 2.969-9.722 2.969-4.598 0-8.74-1.7-11.87-4.526-.247-.223-.024-.527.272-.351 3.384 1.963 7.559 3.153 11.877 3.153 2.914 0 6.114-.607 9.06-1.852.439-.2.814.287.383.607zM22.792 14.961c-.336-.43-2.22-.207-3.074-.103-.255.032-.295-.192-.063-.36 1.5-1.053 3.967-.75 4.254-.399.287.36-.08 2.826-1.485 4.007-.215.184-.423.088-.327-.151.32-.79 1.03-2.57.695-2.994z" fill="#0d141d"/></g><text x="730" y="74" font-family="-apple-system,BlinkMacSystemFont,'Segoe UI',Helvetica,Arial,sans-serif" font-size="14" font-weight="500" fill="#0d141d" text-anchor="start" opacity="1">AWS</text><g transform="translate(40,98) scale(0.9166666666666666)"><path d="M12.581 0c.436.037.871.1 1.299.186 1.679.383 3.121 1.213 4.382 2.365 1.161 1.06 1.917 2.372 2.335 3.881.089.321.216.56.586.624.205.035.238.245.239.43.003.646.002 1.294.002 1.94l-.002 1.21c-.001.356-.116.479-.466.474-.211-.003-.293.119-.344.291-.146.489-.33.966-.552 1.426-.818 1.682-2.084 2.938-3.688 3.87-.077.045-.155.088-.233.131-.252.137-.258.146-.155.415.114.299.358.529.664.625.269.096.553.134.827.21a.672.672 0 0 1 .236.094c-.066.082-.156.067-.231.082-.36.073-.713.184-1.086.17a1.275 1.275 0 0 1-.438-.064c-.114-.045-.152-.006-.176.109a5.354 5.354 0 0 0-.084.92c-.015.617-.071 1.23-.112 1.844-.042.598-.018.651.558.842.281.094.563.187.842.286.069.024.15.038.192.117-.04.057-.098.035-.146.035-.493.003-.985.005-1.478.001-.524-.005-.806-.282-.845-.803-.055-.762-.12-1.524-.182-2.286a.947.947 0 0 0-.026-.12c-.079.455-.065.879-.084 1.298-.023.528-.008 1.057-.007 1.584 0 .27.086.388.335.483.359.135.711.295 1.114.262.141-.012.276.062.402.129.032.017.073.033.069.073-.004.043-.049.047-.084.045-.657-.019-1.317.065-1.972-.028-.323-.046-.533-.236-.631-.552-.094-.303-.114-.617-.137-.93-.046-.626-.078-1.253-.116-1.88a.222.222 0 0 0-.061-.171.282.282 0 0 0-.031.193c-.002.956-.002 1.911-.001 2.866 0 .388.123.575.494.708.481.172.976.298 1.47.423.11.028.225.047.242.192h-1.852c-.051-.01-.103-.022-.155-.03-.701-.1-1.001-.372-1.143-1.042l-.067-.331-.226-1.103c-.069.12-.118.25-.144.386-.083.399-.151.802-.243 1.2-.113.493-.444.763-.932.857l-.33.063H8.558c.057-.171.216-.185.355-.221.476-.127.96-.223 1.417-.409a.603.603 0 0 0 .397-.521c.058-.435.002-.865-.013-1.296a1.528 1.528 0 0 0-.078-.315.405.405 0 0 0-.071.207c-.026.296-.049.591-.075.886-.038.432-.273.716-.679.81a1.702 1.702 0 0 1-.37.045c-.557.003-1.115-.001-1.673-.005-.048 0-.109.019-.148-.065.178-.103.377-.168.582-.187a5.67 5.67 0 0 0 .939-.193c.42-.114.522-.249.512-.687-.023-.931-.091-1.86-.069-2.791.004-.184.001-.368.001-.551a2.387 2.387 0 0 0-.05.385 40.299 40.299 0 0 1-.186 2.623c-.052.513-.296.748-.804.805-.446.051-.889.002-1.332-.02-.108-.006-.234.012-.339-.064.043-.066.106-.07.16-.087.362-.115.725-.224 1.086-.344.246-.081.35-.235.355-.492a2.241 2.241 0 0 0-.003-.232 45.315 45.315 0 0 1-.105-2.149 5.487 5.487 0 0 0-.035-.478c-.024-.188-.131-.287-.295-.258-.505.092-.99-.006-1.473-.139-.059-.016-.134-.007-.178-.088a.986.986 0 0 1 .285-.09c.255-.052.507-.121.753-.208.312-.112.564-.347.695-.651.089-.203.056-.317-.112-.398-1.418-.683-2.512-1.73-3.391-3.017a8.152 8.152 0 0 1-1.123-2.447c-.067-.246-.156-.3-.383-.26-.306.053-.401.006-.535-.273v-3.49c.144-.303.205-.341.534-.329.235.01.247-.004.309-.242.396-1.508 1.082-2.861 2.171-3.988C6.9 1.42 8.523.631 10.34.203c.456-.108.922-.15 1.387-.203h.854Zm7.974 8.948a7.34 7.34 0 0 0-.048-.938 8.353 8.353 0 0 0-.099-.65c-.598-2.964-2.344-5.02-5.051-6.268-1.553-.715-3.21-.835-4.878-.511-3.248.633-5.396 2.583-6.539 5.652-.436 1.173-.495 2.406-.37 3.65.087.935.339 1.846.745 2.694.585 1.213 1.444 2.207 2.477 3.058.343.286.719.528 1.121.719.235.111.247.105.245-.146.006-.16.003-.32-.009-.48-.125-1.02-.142-2.045-.169-3.069a.392.392 0 0 0-.184-.353c-.385-.268-.713-.592-.921-1.019-.474-.97-.372-2.361.813-3.215.136-.097.217-.19.198-.373a1.724 1.724 0 0 1 .031-.442c.177-1.187.748-2.138 1.722-2.84.68-.492 1.442-.772 2.286-.782.483-.007.953.11 1.414.244 1.609.467 2.846 2.07 2.845 3.697a.64.64 0 0 0 .268.565c.463.371.821.83.943 1.426.22 1.077-.083 1.982-.979 2.634-.266.194-.347.406-.333.698.002.047 0 .095-.002.142l-.062 1.439c-.025.586-.138 1.165-.117 1.754.008.223.006.226.201.128a7.46 7.46 0 0 0 2.393-1.903c1.32-1.577 2.074-3.372 2.059-5.511ZM9.117 12.102c1.489.021 2.443-1.578 1.716-2.879a1.937 1.937 0 0 0-1.699-.991c-1.094-.004-1.954.822-1.958 1.881-.005 1.148.813 1.985 1.941 1.989Zm5.794 0c1.101.002 1.935-.823 1.935-1.917 0-1.091-.846-1.949-1.92-1.947-1.064.003-1.94.866-1.943 1.915-.003 1.105.831 1.948 1.928 1.949Zm-1.472 1.937c-.208.128-.407.277-.63.384-.536.257-1.063.257-1.579-.048-.158-.094-.308-.201-.464-.298-.047-.028-.092-.103-.15-.062-.044.03-.01.1-.001.151.037.179.064.362.082.544.027.565.293.992.742 1.31a.984.984 0 0 0 .791.186c.565-.119 1.025-.614 1.124-1.218.043-.266.005-.544.109-.803a.133.133 0 0 0-.024-.146Zm-8.78-4.92c-.012-1.102.143-2.055.54-2.961.633-1.443 1.642-2.553 2.98-3.374a.378.378 0 0 1 .459.067c.06.06.036.118.01.178a1.09 1.09 0 0 1-.48.51c-1.079.639-1.829 1.571-2.357 2.688a6.325 6.325 0 0 0-.618 2.986c.055 1.309.439 2.516 1.213 3.588.088.104.148.23.173.365.01.08.059.168-.031.228a.312.312 0 0 1-.288.041.502.502 0 0 1-.234-.185c-.72-.979-1.193-2.056-1.331-3.273-.036-.326-.004-.653-.036-.858ZM8.94 2.34a.373.373 0 0 1 .378-.382c.211.001.409.226.416.473.004.138-.309.39-.476.386-.189-.005-.318-.2-.318-.477Zm-.465 7.48a.609.609 0 0 1 .586-.631c.38-.003.671.271.675.633.004.356-.27.622-.639.621-.38-.002-.621-.241-.622-.623Zm6.496.623c-.381-.002-.625-.255-.621-.646a.635.635 0 0 1 .596-.613.656.656 0 0 1 .669.643c.001.354-.275.618-.644.616Z" fill="#EF7B4D"/></g><text x="70" y="116" font-family="-apple-system,BlinkMacSystemFont,'Segoe UI',Helvetica,Arial,sans-serif" font-size="14" font-weight="500" fill="#0d141d" text-anchor="start" opacity="1">Argo CD</text><g transform="translate(150,98) scale(0.9166666666666666)"><path d="M12.337 0c-.475 0-.861 1.016-.861 2.269 0 .527.069 1.011.183 1.396a8.514 8.514 0 0 0-3.961 1.22 5.229 5.229 0 0 0-.595-1.093c-.606-.866-1.34-1.436-1.79-1.43a.381.381 0 0 0-.217.066c-.39.273-.123 1.326.596 2.353.267.381.559.705.84.948a8.683 8.683 0 0 0-1.528 1.716h1.734a7.179 7.179 0 0 1 5.381-2.421 7.18 7.18 0 0 1 5.382 2.42h1.733a8.687 8.687 0 0 0-1.32-1.53c.35-.249.735-.643 1.078-1.133.719-1.027.986-2.08.596-2.353a.382.382 0 0 0-.217-.065c-.45-.007-1.184.563-1.79 1.43a4.897 4.897 0 0 0-.676 1.325 8.52 8.52 0 0 0-3.899-1.42c.12-.39.193-.887.193-1.429 0-1.253-.386-2.269-.862-2.269zM1.624 9.443v5.162h1.358v-1.968h1.64v1.968h1.357V9.443H4.62v1.838H2.98V9.443zm5.912 0v5.162h3.21v-1.108H8.893v-.95h1.64v-1.142h-1.64v-.84h1.853V9.443zm4.698 0v5.162h3.218v-1.362h-1.86v-3.8zm4.706 0v5.162h1.364v-2.643l1.357 1.225 1.35-1.232v2.65h1.365V9.443h-.614l-2.1 1.914-2.109-1.914zm-11.82 7.28a8.688 8.688 0 0 0 1.412 1.548 5.206 5.206 0 0 0-.841.948c-.719 1.027-.985 2.08-.596 2.353.39.273 1.289-.338 2.007-1.364a5.23 5.23 0 0 0 .595-1.092 8.514 8.514 0 0 0 3.961 1.219 5.01 5.01 0 0 0-.183 1.396c0 1.253.386 2.269.861 2.269.476 0 .862-1.016.862-2.269 0-.542-.072-1.04-.193-1.43a8.52 8.52 0 0 0 3.9-1.42c.121.4.352.865.675 1.327.719 1.026 1.617 1.637 2.007 1.364.39-.273.123-1.326-.596-2.353-.343-.49-.727-.885-1.077-1.135a8.69 8.69 0 0 0 1.202-1.36h-1.771a7.174 7.174 0 0 1-5.227 2.252 7.174 7.174 0 0 1-5.226-2.252z" fill="#0d141d"/></g><text x="180" y="116" font-family="-apple-system,BlinkMacSystemFont,'Segoe UI',Helvetica,Arial,sans-serif" font-size="14" font-weight="500" fill="#0d141d" text-anchor="start" opacity="1">Helm</text><g transform="translate(236,98) scale(0.9166666666666666)"><path d="M12 0C5.373 0 0 5.372 0 12c0 6.627 5.373 12 12 12s12-5.373 12-12c0-6.628-5.373-12-12-12zm0 22.46c-1.885 0-3.414-1.26-3.414-2.814h6.828c0 1.553-1.528 2.813-3.414 2.813zm5.64-3.745H6.36v-2.046h11.28v2.046zm-.04-3.098H6.391c-.037-.043-.075-.086-.111-.13-1.155-1.401-1.427-2.133-1.69-2.879-.005-.025 1.4.287 2.395.511 0 0 .513.119 1.262.255-.72-.843-1.147-1.915-1.147-3.01 0-2.406 1.845-4.508 1.18-6.207.648.053 1.34 1.367 1.387 3.422.689-.951.977-2.69.977-3.755 0-1.103.727-2.385 1.454-2.429-.648 1.069.168 1.984.894 4.256.272.854.237 2.29.447 3.201.07-1.892.395-4.652 1.595-5.605-.529 1.2.079 2.702.494 3.424.671 1.164 1.078 2.047 1.078 3.716a4.642 4.642 0 01-1.11 2.996c.792-.149 1.34-.283 1.34-.283l2.573-.502s-.374 1.538-1.81 3.019z" fill="#E6522C"/></g><text x="266" y="116" font-family="-apple-system,BlinkMacSystemFont,'Segoe UI',Helvetica,Arial,sans-serif" font-size="14" font-weight="500" fill="#0d141d" text-anchor="start" opacity="1">Prometheus</text><g transform="translate(370,98) scale(0.9166666666666666)"><path d="M23.02 10.59a8.578 8.578 0 0 0-.862-3.034 8.911 8.911 0 0 0-1.789-2.445c.337-1.342-.413-2.505-.413-2.505-1.292-.08-2.113.4-2.416.62-.052-.02-.102-.044-.154-.064-.22-.089-.446-.172-.677-.247-.231-.073-.47-.14-.711-.197a9.867 9.867 0 0 0-.875-.161C14.557.753 12.94 0 12.94 0c-1.804 1.145-2.147 2.744-2.147 2.744l-.018.093c-.098.029-.2.057-.298.088-.138.042-.275.094-.413.143-.138.055-.275.107-.41.166a8.869 8.869 0 0 0-1.557.87l-.063-.029c-2.497-.955-4.716.195-4.716.195-.203 2.658.996 4.33 1.235 4.636a11.608 11.608 0 0 0-.607 2.635C1.636 12.677.953 15.014.953 15.014c1.926 2.214 4.171 2.351 4.171 2.351.003-.002.006-.002.006-.005.285.509.615.994.986 1.446.156.19.32.371.488.548-.704 2.009.099 3.68.099 3.68 2.144.08 3.553-.937 3.849-1.173a9.784 9.784 0 0 0 3.164.501h.08l.055-.003.107-.002.103-.005.003.002c1.01 1.44 2.788 1.646 2.788 1.646 1.264-1.332 1.337-2.653 1.337-2.94v-.058c0-.02-.003-.039-.003-.06.265-.187.52-.387.758-.6a7.875 7.875 0 0 0 1.415-1.7c1.43.083 2.437-.885 2.437-.885-.236-1.49-1.085-2.216-1.264-2.354l-.018-.013-.016-.013a.217.217 0 0 1-.031-.02c.008-.092.016-.18.02-.27.011-.162.016-.323.016-.48v-.253l-.005-.098-.008-.135a1.891 1.891 0 0 0-.01-.13c-.003-.042-.008-.083-.013-.125l-.016-.124-.018-.122a6.215 6.215 0 0 0-2.032-3.73 6.015 6.015 0 0 0-3.222-1.46 6.292 6.292 0 0 0-.85-.048l-.107.002h-.063l-.044.003-.104.008a4.777 4.777 0 0 0-3.335 1.695c-.332.4-.592.84-.768 1.297a4.594 4.594 0 0 0-.312 1.817l.003.091c.005.055.007.11.013.164a3.615 3.615 0 0 0 .698 1.82 3.53 3.53 0 0 0 1.827 1.282c.33.098.66.14.971.137.039 0 .078 0 .114-.002l.063-.003c.02 0 .041-.003.062-.003.034-.002.065-.007.099-.01.007 0 .018-.003.028-.003l.031-.005.06-.008a1.18 1.18 0 0 0 .112-.02c.036-.008.072-.013.109-.024a2.634 2.634 0 0 0 .914-.415c.028-.02.056-.041.085-.065a.248.248 0 0 0 .039-.35.244.244 0 0 0-.309-.06l-.078.042c-.09.044-.184.083-.283.116a2.476 2.476 0 0 1-.475.096c-.028.003-.054.006-.083.006l-.083.002c-.026 0-.054 0-.08-.002l-.102-.006h-.012l-.024.006c-.016-.003-.031-.003-.044-.006-.031-.002-.06-.007-.091-.01a2.59 2.59 0 0 1-.724-.213 2.557 2.557 0 0 1-.667-.438 2.52 2.52 0 0 1-.805-1.475 2.306 2.306 0 0 1-.029-.444l.006-.122v-.023l.002-.031c.003-.021.003-.04.005-.06a3.163 3.163 0 0 1 1.352-2.29 3.12 3.12 0 0 1 .937-.43 2.946 2.946 0 0 1 .776-.101h.06l.07.002.045.003h.026l.07.005a4.041 4.041 0 0 1 1.635.49 3.94 3.94 0 0 1 1.602 1.662 3.77 3.77 0 0 1 .397 1.414l.005.076.003.075c.002.026.002.05.002.075 0 .024.003.052 0 .07v.065l-.002.073-.008.174a6.195 6.195 0 0 1-.08.639 5.1 5.1 0 0 1-.267.927 5.31 5.31 0 0 1-.624 1.13 5.052 5.052 0 0 1-3.237 2.014 4.82 4.82 0 0 1-.649.066l-.039.003h-.287a6.607 6.607 0 0 1-1.716-.265 6.776 6.776 0 0 1-3.4-2.274 6.75 6.75 0 0 1-.746-1.15 6.616 6.616 0 0 1-.714-2.596l-.005-.083-.002-.02v-.056l-.003-.073v-.096l-.003-.104v-.07l.003-.163c.008-.22.026-.45.054-.678a8.707 8.707 0 0 1 .28-1.355c.128-.444.286-.872.473-1.277a7.04 7.04 0 0 1 1.456-2.1 5.925 5.925 0 0 1 .953-.763c.169-.111.343-.213.524-.306.089-.05.182-.091.273-.135.047-.02.093-.042.138-.062a7.177 7.177 0 0 1 .714-.267l.145-.045c.049-.015.098-.026.148-.041.098-.029.197-.052.296-.076.049-.013.1-.02.15-.033l.15-.032.151-.028.076-.013.075-.01.153-.024c.057-.01.114-.013.171-.023l.169-.021c.036-.003.073-.008.106-.01l.073-.008.036-.003.042-.002c.057-.003.114-.008.171-.01l.086-.006h.023l.037-.003.145-.007a7.999 7.999 0 0 1 1.708.125 7.917 7.917 0 0 1 2.048.68 8.253 8.253 0 0 1 1.672 1.09l.09.077.089.078c.06.052.114.107.171.159.057.052.112.106.166.16.052.055.107.107.159.164a8.671 8.671 0 0 1 1.41 1.978c.012.026.028.052.04.078l.04.078.075.156c.023.051.05.1.07.153l.065.15a8.848 8.848 0 0 1 .45 1.34.19.19 0 0 0 .201.142.186.186 0 0 0 .172-.184c.01-.246.002-.532-.024-.856z" fill="#F46800"/></g><text x="400" y="116" font-family="-apple-system,BlinkMacSystemFont,'Segoe UI',Helvetica,Arial,sans-serif" font-size="14" font-weight="500" fill="#0d141d" text-anchor="start" opacity="1">Grafana</text><g transform="translate(480,98) scale(0.9166666666666666)"><path d="M10.984 13.836a.5.5 0 0 1-.353-.146l-.745-.743a.5.5 0 1 1 .706-.708l.392.391 1.181-1.18a.5.5 0 0 1 .708.707l-1.535 1.533a.504.504 0 0 1-.354.146zm9.353-.147l1.534-1.532a.5.5 0 0 0-.707-.707l-1.181 1.18-.392-.391a.5.5 0 1 0-.706.708l.746.743a.497.497 0 0 0 .706-.001zM4.527 7.452l2.557-1.585A1 1 0 0 0 7.09 4.17L4.533 2.56A1 1 0 0 0 3 3.406v3.196a1.001 1.001 0 0 0 1.527.85zm2.03-2.436L4 6.602V3.406l2.557 1.61zM24 12.5c0 1.93-1.57 3.5-3.5 3.5a3.503 3.503 0 0 1-3.46-3h-2.08a3.503 3.503 0 0 1-3.46 3 3.502 3.502 0 0 1-3.46-3h-.558c-.972 0-1.85-.399-2.482-1.042V17c0 1.654 1.346 3 3 3h.04c.244-1.693 1.7-3 3.46-3 1.93 0 3.5 1.57 3.5 3.5S13.43 24 11.5 24a3.502 3.502 0 0 1-3.46-3H8c-2.206 0-4-1.794-4-4V9.899A5.008 5.008 0 0 1 0 5c0-2.757 2.243-5 5-5s5 2.243 5 5a5.005 5.005 0 0 1-4.952 4.998A2.482 2.482 0 0 0 7.482 12h.558c.244-1.693 1.7-3 3.46-3a3.502 3.502 0 0 1 3.46 3h2.08a3.503 3.503 0 0 1 3.46-3c1.93 0 3.5 1.57 3.5 3.5zm-15 8c0 1.378 1.122 2.5 2.5 2.5s2.5-1.122 2.5-2.5-1.122-2.5-2.5-2.5S9 19.122 9 20.5zM5 9c2.206 0 4-1.794 4-4S7.206 1 5 1 1 2.794 1 5s1.794 4 4 4zm9 3.5c0-1.378-1.122-2.5-2.5-2.5S9 11.122 9 12.5s1.122 2.5 2.5 2.5 2.5-1.122 2.5-2.5zm9 0c0-1.378-1.122-2.5-2.5-2.5S18 11.122 18 12.5s1.122 2.5 2.5 2.5 2.5-1.122 2.5-2.5zm-13 8a.5.5 0 1 0 1 0 .5.5 0 0 0-1 0zm2 0a.5.5 0 1 0 1 0 .5.5 0 0 0-1 0zm12 0c0 1.93-1.57 3.5-3.5 3.5a3.503 3.503 0 0 1-3.46-3.002c-.007.001-.013.005-.021.005l-.506.017h-.017a.5.5 0 0 1-.016-.999l.506-.017c.018-.002.035.006.052.007A3.503 3.503 0 0 1 20.5 17c1.93 0 3.5 1.57 3.5 3.5zm-1 0c0-1.378-1.122-2.5-2.5-2.5S18 19.122 18 20.5s1.122 2.5 2.5 2.5 2.5-1.122 2.5-2.5z" fill="#2088FF"/></g><text x="510" y="116" font-family="-apple-system,BlinkMacSystemFont,'Segoe UI',Helvetica,Arial,sans-serif" font-size="14" font-weight="500" fill="#0d141d" text-anchor="start" opacity="1">GitHub Actions</text></g>
</svg>